<svg id="Layer_1" data-name="Layer 1" xmlns="http://www.w3.org/2000/svg" viewBox="0 0 229.84 24.23"><defs><style>.cls-1{isolation:isolate;opacity:0.7;}</style></defs><path d="M34.27,13.76h12A6.61,6.61,0,0,0,36.71,11a6.62,6.62,0,0,0-2.44,2.8Zm6,14.85a12.14,12.14,0,0,1-11.19-7.48A12.11,12.11,0,0,1,37.91,4.62,12.11,12.11,0,0,1,52.38,16.5a2.74,2.74,0,0,1-.8,1.93,2.78,2.78,0,0,1-1.94.82H34.26a6.67,6.67,0,0,0,6,3.86,2.75,2.75,0,0,1,2,4.69,2.76,2.76,0,0,1-2,.81" transform="translate(-4.08 -4.39)"/><path d="M76.44,28.45a2.79,2.79,0,0,1-1.93-.81,2.71,2.71,0,0,1-.81-1.93V16.5a6.6,6.6,0,0,0-13.2,0v9.21a2.75,2.75,0,0,1-5.49,0V16.5a12.11,12.11,0,1,1,24.22,0v9.21a2.82,2.82,0,0,1-2.79,2.74" transform="translate(-4.08 -4.39)"/><path d="M116.22,28.45a12.14,12.14,0,0,1-12.11-12.11V7.14a2.73,2.73,0,0,1,2.74-2.74,2.71,2.71,0,0,1,1.94.8,2.75,2.75,0,0,1,.8,1.94v9.2a6.62,6.62,0,0,0,.43,2.6,6.76,6.76,0,0,0,1.41,2.23,6.4,6.4,0,0,0,2.18,1.5,6.59,6.59,0,0,0,5.18,0,6.46,6.46,0,0,0,2.17-1.5,6.53,6.53,0,0,0,1.84-4.83V7.14a2.73,2.73,0,0,1,2.74-2.74,2.71,2.71,0,0,1,1.94.8,2.75,2.75,0,0,1,.8,1.94v9.2a11.76,11.76,0,0,1-.89,4.64,11.93,11.93,0,0,1-2.6,3.93,12,12,0,0,1-8.57,3.54" transform="translate(-4.08 -4.39)"/><path d="M93.53,14.25c-3.88-.82-5.44-1.16-5.44-2.58s2-2.19,4.19-2.19a8.58,8.58,0,0,1,3.17.64,3,3,0,0,0,1.14.25,2.35,2.35,0,0,0,1-.19,2.46,2.46,0,0,0,.83-.55,2.5,2.5,0,0,0,.75-1.82,2.52,2.52,0,0,0-.49-1.54,2.62,2.62,0,0,0-1.31-.95,15.09,15.09,0,0,0-5.07-.91C86,4.41,82.36,8,82.36,11.6c0,4.37,4,6.31,8.54,7.29,3.5.73,4.57,1,4.57,2.54s-2,2.08-4.36,2.08A10.63,10.63,0,0,1,86,21.91a3.1,3.1,0,0,0-1-.23,2.66,2.66,0,0,0-1,.2,2.63,2.63,0,0,0-.84.56,2.45,2.45,0,0,0-.57.85,2.57,2.57,0,0,0,.2,2.37,2.46,2.46,0,0,0,1.07.95,15,15,0,0,0,7.54,2c5.87,0,10.05-3.15,10.05-7.1,0-4.75-3.27-6.26-7.84-7.25" transform="translate(-4.08 -4.39)"/><path d="M142.33,14.25c-3.88-.82-5.44-1.16-5.44-2.58s2-2.19,4.18-2.19a8.67,8.67,0,0,1,3.18.64,3,3,0,0,0,1.14.25,2.35,2.35,0,0,0,1-.19,2.6,2.6,0,0,0,.84-.55,2.73,2.73,0,0,0,.55-.83,2.6,2.6,0,0,0,.19-1,2.65,2.65,0,0,0-1.8-2.49,15.15,15.15,0,0,0-5.08-.91c-6.3,0-9.91,3.59-9.91,7.19,0,4.37,4,6.31,8.54,7.29,3.5.73,4.57,1,4.57,2.54s-2,2.08-4.36,2.08a11,11,0,0,1-5.23-1.62h0a2.79,2.79,0,0,0-1-.21,2.61,2.61,0,0,0-2.6,2.6,2.73,2.73,0,0,0,.4,1.37,2.58,2.58,0,0,0,1.06,1,15,15,0,0,0,7.54,2c5.87,0,10-3.15,10-7.1,0-4.75-3.24-6.26-7.81-7.25" transform="translate(-4.08 -4.39)"/><path d="M16.22,28.61A12.16,12.16,0,0,1,6.07,23.15a12.09,12.09,0,0,1-1-11.48,12.11,12.11,0,0,1,20-3.41,2.65,2.65,0,0,1,.68.91,2.74,2.74,0,0,1,0,2.22,2.81,2.81,0,0,1-1.63,1.52,2.83,2.83,0,0,1-1.12.14,2.75,2.75,0,0,1-1.09-.32,2.78,2.78,0,0,1-.87-.73,6.36,6.36,0,0,0-4.82-2.1,6.61,6.61,0,0,0,0,13.21,6.48,6.48,0,0,0,2.64-.56A6.4,6.4,0,0,0,21.06,21a2.62,2.62,0,0,1,.87-.72A2.74,2.74,0,0,1,23,20a2.67,2.67,0,0,1,1.12.15,2.8,2.8,0,0,1,1,.59,2.7,2.7,0,0,1,.65.92,2.77,2.77,0,0,1,.22,1.1,2.59,2.59,0,0,1-.24,1.1,2.73,2.73,0,0,1-.66.92,12,12,0,0,1-4,2.86,12.17,12.17,0,0,1-4.83,1" transform="translate(-4.08 -4.39)"/><path class="cls-1" d="M157,26.07v-.89c0-4.76,3.68-6.86,7.15-8.57,3-1.51,5.76-2.65,5.76-5.14s-1.76-3.82-4.71-3.82a5.5,5.5,0,0,0-3.64,1.17,5.45,5.45,0,0,0-2,3.26c0,.12-2.42.14-2.42-1.78a5.25,5.25,0,0,1,2.1-3.79,9.73,9.73,0,0,1,6.21-2c5,0,8.07,2.6,8.07,6.9,0,4.13-3.29,5.78-6.79,7.38-3,1.35-5.52,2.65-6.14,5.09a5.73,5.73,0,0,0-.14,1h11.73c1.21,0,1.76.5,1.76,1.44v.21c0,1-.52,1.5-1.76,1.5H159.25C157.61,28.05,157,27.53,157,26.07Zm19.44-8.37V15.35c0-6.67,3.68-10.85,9.6-10.85s9.64,4.13,9.64,10.81v2.33c0,6.67-3.68,10.89-9.64,10.89s-9.6-4.15-9.6-10.83Zm15.58.12V15.24c0-4.87-2.21-7.72-6-7.72s-5.89,2.78-5.89,7.63v2.6c0,4.87,2.17,7.63,5.89,7.63s6-2.72,6-7.56Zm6.74,8.25v-.89c0-4.76,3.68-6.86,7.15-8.57,3-1.51,5.76-2.65,5.76-5.14s-1.76-3.82-4.7-3.82a5.51,5.51,0,0,0-5.65,4.43c0,.12-2.42.14-2.42-1.78A5.25,5.25,0,0,1,201,6.51a9.81,9.81,0,0,1,6.22-2c5,0,8.06,2.6,8.06,6.9,0,4.13-3.29,5.78-6.78,7.38-3,1.35-5.53,2.65-6.15,5.09a4.92,4.92,0,0,0-.14,1h11.72c1.21,0,1.76.5,1.76,1.44v.21c0,1-.52,1.5-1.76,1.5H201c-1.64,0-2.31-.5-2.31-2Zm21.59.57v-.19c0-1,.57-1.5,1.67-1.5h3.86V8.5c-1.39,1.09-2,1.76-2.65,2.28a2.87,2.87,0,0,1-1.89.78,2,2,0,0,1-1.83-1.42,2,2,0,0,1-.07-.82l6.9-4.52h1.26a1.49,1.49,0,0,1,.66.09,1.43,1.43,0,0,1,.56.35,1.4,1.4,0,0,1,.35.57,1.44,1.44,0,0,1,.07.65L229.14,25h3.11c1.1,0,1.67.45,1.67,1.5v.19c0,1-.57,1.44-1.67,1.44H222c-1.1,0-1.67-.44-1.67-1.44Z" transform="translate(-4.08 -4.39)"/></svg>