<svg id="Layer_1" data-name="Layer 1" xmlns="http://www.w3.org/2000/svg" viewBox="0 0 375 40"><defs><style>.cls-1,.cls-2{fill:#383b8a;}.cls-2{isolation:isolate;opacity:0.7;}</style></defs><path class="cls-1" d="M50,15.56H69.45a10.73,10.73,0,0,0-19.47,0Zm9.73,24A19.6,19.6,0,1,1,79.36,20a4.41,4.41,0,0,1-1.31,3.14,4.48,4.48,0,0,1-3.15,1.3H50a10.72,10.72,0,0,0,9.74,6.25,4.56,4.56,0,0,1,3,1.39,4.47,4.47,0,0,1-3,7.53"/><path class="cls-1" d="M118.42,39.34A4.44,4.44,0,0,1,114,34.9V20a10.67,10.67,0,0,0-.82-4.09,10.74,10.74,0,0,0-5.79-5.78A10.71,10.71,0,0,0,92.55,20V34.9a4.46,4.46,0,0,1-8.91,0V20a19.65,19.65,0,0,1,39.3,0V34.9a4.58,4.58,0,0,1-4.52,4.44Z"/><path class="cls-1" d="M183,39.34a19.67,19.67,0,0,1-19.66-19.61V4.84a4.45,4.45,0,0,1,8.9,0V19.73a10.72,10.72,0,0,0,21.43,0V4.84a4.45,4.45,0,0,1,8.89,0V19.73a19.31,19.31,0,0,1-1.46,7.5A19.56,19.56,0,0,1,183,39.34Z"/><path class="cls-1" d="M146.13,16.37c-6.3-1.33-8.83-1.88-8.83-4.18s3.25-3.55,6.79-3.55a14,14,0,0,1,5.15,1,5.39,5.39,0,0,0,1.85.4,4,4,0,0,0,1.6-.31,4.16,4.16,0,0,0,2.25-2.24,4.37,4.37,0,0,0,.31-1.59,4.19,4.19,0,0,0-2.92-4A24.15,24.15,0,0,0,144.09.43C133.86.43,128,6.23,128,12.07c0,7.08,6.49,10.22,13.86,11.81,5.68,1.18,7.42,1.62,7.42,4.11s-3.25,3.37-7.08,3.37a17.49,17.49,0,0,1-8.37-2.59,5,5,0,0,0-1.62-.38,4.29,4.29,0,0,0-3,1.23A4.21,4.21,0,0,0,128.3,31,4.07,4.07,0,0,0,128,32.6a4.18,4.18,0,0,0,2.39,3.78,24.13,24.13,0,0,0,12.22,3.23c9.54,0,16.32-5.1,16.32-11.49,0-7.71-5.31-10.14-12.72-11.74"/><path class="cls-1" d="M225.31,16.37c-6.3-1.33-8.83-1.88-8.83-4.18s3.25-3.55,6.78-3.55a14.07,14.07,0,0,1,5.17,1,5.28,5.28,0,0,0,1.84.4,4,4,0,0,0,1.6-.31,4.16,4.16,0,0,0,2.25-2.24,4.37,4.37,0,0,0,.31-1.59,4.27,4.27,0,0,0-2.94-4A24,24,0,0,0,223.26.43c-10.22,0-16.07,5.8-16.07,11.64,0,7.08,6.49,10.22,13.85,11.81,5.68,1.18,7.42,1.62,7.42,4.11s-3.25,3.37-7.08,3.37a18.08,18.08,0,0,1-8.48-2.64,5,5,0,0,0-1.63-.33,4.23,4.23,0,0,0-3.9,2.6,4,4,0,0,0-.31,1.61,4.27,4.27,0,0,0,2.37,3.78,24.4,24.4,0,0,0,12.23,3.23c9.52,0,16.3-5.1,16.3-11.49,0-7.71-5.25-10.14-12.67-11.74"/><path class="cls-1" d="M20.69,39.6A19.6,19.6,0,1,1,35,6.63,4.46,4.46,0,0,1,36.1,8.11a4.39,4.39,0,0,1,.39,1.78,4.54,4.54,0,0,1-.36,1.79,4.34,4.34,0,0,1-1.05,1.49,4.4,4.4,0,0,1-1.56.95,4.47,4.47,0,0,1-1.81.25,4.69,4.69,0,0,1-1.76-.5,4.64,4.64,0,0,1-1.41-1.16A10.53,10.53,0,0,0,25,10.18a10.43,10.43,0,0,0-4.27-.87A10.69,10.69,0,1,0,25,29.79a10.51,10.51,0,0,0,3.54-2.55A4.79,4.79,0,0,1,30,26.08a4.69,4.69,0,0,1,1.76-.5,4.47,4.47,0,0,1,1.81.25,4.48,4.48,0,0,1,2.61,2.44,4.54,4.54,0,0,1,.36,1.79,4.39,4.39,0,0,1-.39,1.78A4.46,4.46,0,0,1,35,33.32,19.61,19.61,0,0,1,20.69,39.6Z"/><path class="cls-2" d="M249,35.44V34c0-7.7,6-11.1,11.6-13.86,4.87-2.45,9.35-4.29,9.35-8.33s-2.86-6.18-7.64-6.18a8.93,8.93,0,0,0-9.16,7.17c0,.2-3.92.23-3.92-2.88a8.33,8.33,0,0,1,1-3.44,8.44,8.44,0,0,1,2.38-2.7A15.75,15.75,0,0,1,262.74.55c8.11,0,13.1,4.21,13.1,11.17,0,6.68-5.34,9.36-11,12-4.87,2.17-9,4.29-10,8.24a8,8,0,0,0-.23,1.62h19c2,0,2.86.81,2.86,2.33v.32c0,1.62-.86,2.45-2.86,2.45H252.75C250.1,38.67,249,37.86,249,35.44ZM280.57,21.9V18.1c0-10.8,6-17.57,15.58-17.57S311.79,7.22,311.79,18v3.77c0,10.81-6,17.65-15.64,17.65S280.57,32.75,280.57,22Zm25.28.2V17.92c0-7.89-3.58-12.52-9.73-12.52s-9.56,4.52-9.56,12.36V22c0,7.87,3.52,12.36,9.56,12.36s9.73-4.36,9.73-12.2Zm10.94,13.34V34c0-7.7,6-11.1,11.6-13.86,4.87-2.45,9.35-4.29,9.35-8.33s-2.86-6.18-7.65-6.18a8.91,8.91,0,0,0-9.15,7.17c0,.2-3.92.23-3.92-2.88a8.33,8.33,0,0,1,1-3.44,8.53,8.53,0,0,1,2.37-2.7A15.83,15.83,0,0,1,330.52.55c8.11,0,13.07,4.21,13.07,11.17,0,6.68-5.33,9.36-11,12-4.86,2.17-9,4.29-10,8.24a8,8,0,0,0-.22,1.62h19c2,0,2.86.81,2.86,2.33v.32c0,1.62-.84,2.45-2.86,2.45H320.54C317.88,38.67,316.79,37.86,316.79,35.44Zm35,.94v-.31c0-1.62.92-2.45,2.71-2.45h6.26V7c-2.25,1.76-3.24,2.83-4.3,3.69A4.7,4.7,0,0,1,353.41,12a3.15,3.15,0,0,1-1.28-.33,3.26,3.26,0,0,1-1.68-2,3.45,3.45,0,0,1-.11-1.32L361.54,1h2a2.43,2.43,0,0,1,1.07.13,2.49,2.49,0,0,1,.91.58,2.45,2.45,0,0,1,.57.92,2.29,2.29,0,0,1,.12,1.07V33.62h5.05c1.79,0,2.71.75,2.71,2.45v.31c0,1.61-.92,2.31-2.71,2.31H354.61c-1.87,0-2.79-.65-2.79-2.27Z"/></svg>