<svg id="Layer_1" data-name="Layer 1" xmlns="http://www.w3.org/2000/svg" xmlns:xlink="http://www.w3.org/1999/xlink" viewBox="0 0 167.34 17.55"><defs><style>.cls-1{fill:none;}.cls-2{clip-path:url(#clip-path);}.cls-3,.cls-4{fill:#902082;}.cls-4{isolation:isolate;opacity:0.7;}</style><clipPath id="clip-path" transform="translate(-5.82 -1.23)"><rect class="cls-1" x="5.84" y="1.24" width="167.33" height="17.53"/></clipPath></defs><g class="cls-2"><path class="cls-3" d="M27.79,8h8.75a4.82,4.82,0,0,0-7-2A4.79,4.79,0,0,0,27.79,8Zm4.37,10.75A8.8,8.8,0,0,1,24,13.35,8.74,8.74,0,0,1,25.93,3.8a8.85,8.85,0,0,1,9.61-1.9A8.79,8.79,0,0,1,41,10a2,2,0,0,1-.58,1.4A2,2,0,0,1,39,12H27.79a4.84,4.84,0,0,0,4.37,2.79,2,2,0,0,1,1.42.59,2,2,0,0,1,0,2.81,2,2,0,0,1-1.42.59" transform="translate(-5.82 -1.23)"/><path class="cls-3" d="M58.49,18.65a2,2,0,0,1-2-2V10a4.91,4.91,0,0,0-.34-1.86,4.77,4.77,0,0,0-1-1.58,4.64,4.64,0,0,0-1.57-1.06,4.76,4.76,0,0,0-1.86-.38,4.81,4.81,0,0,0-1.87.38,4.77,4.77,0,0,0-2.6,2.64A4.55,4.55,0,0,0,46.88,10v6.66a1.94,1.94,0,0,1-.59,1.4,2,2,0,0,1-1.42.59,2,2,0,0,1-1.41-.59,1.94,1.94,0,0,1-.59-1.4V10a8.71,8.71,0,0,1,2.59-6.2,8.84,8.84,0,0,1,12.46,0A8.7,8.7,0,0,1,60.5,10v6.66a2,2,0,0,1-2,2" transform="translate(-5.82 -1.23)"/><path class="cls-3" d="M87.46,18.65a8.84,8.84,0,0,1-6.23-2.57,8.74,8.74,0,0,1-2.58-6.2V3.23a2,2,0,0,1,2-2,2,2,0,0,1,2,2V9.88a4.76,4.76,0,0,0,1.44,3.33,4.83,4.83,0,0,0,6.74,0,4.76,4.76,0,0,0,1.44-3.33V3.23a2,2,0,0,1,2-2,2,2,0,0,1,2,2V9.88a8.79,8.79,0,0,1-8.81,8.77" transform="translate(-5.82 -1.23)"/><path class="cls-3" d="M70.94,8.38c-2.83-.6-4-.84-4-1.86s1.45-1.58,3-1.58a6.55,6.55,0,0,1,2.31.45,2.43,2.43,0,0,0,.83.18A1.9,1.9,0,0,0,74.48,5,1.86,1.86,0,0,0,75,3.7a1.89,1.89,0,0,0-1.31-1.8A10.89,10.89,0,0,0,70,1.24c-4.6,0-7.22,2.6-7.22,5.21,0,3.16,2.9,4.57,6.23,5.27,2.54.53,3.32.74,3.32,1.83s-1.45,1.52-3.18,1.52a8.07,8.07,0,0,1-3.77-1.16,2.11,2.11,0,0,0-.75-.17,1.94,1.94,0,0,0-1.18.41,1.83,1.83,0,0,0-.66,1,1.86,1.86,0,0,0,1,2.11,10.88,10.88,0,0,0,5.49,1.44c4.28,0,7.32-2.29,7.32-5.14,0-3.45-2.37-4.54-5.7-5.24" transform="translate(-5.82 -1.23)"/><path class="cls-3" d="M106.47,8.38c-2.83-.6-4-.84-4-1.86s1.45-1.58,3-1.58a6.56,6.56,0,0,1,2.32.45,2.38,2.38,0,0,0,.83.18,1.79,1.79,0,0,0,.72-.15A1.86,1.86,0,0,0,110,5a1.89,1.89,0,0,0,.41-.6,2,2,0,0,0,.14-.72,1.92,1.92,0,0,0-1.32-1.8,10.79,10.79,0,0,0-3.69-.66c-4.6,0-7.22,2.6-7.22,5.21,0,3.16,2.9,4.57,6.23,5.27,2.54.53,3.32.74,3.32,1.83s-1.45,1.52-3.18,1.52a8.2,8.2,0,0,1-3.8-1.17,1.9,1.9,0,0,0-.91-.14,1.94,1.94,0,0,0-.87.31,1.82,1.82,0,0,0-.61.68,1.8,1.8,0,0,0-.22.88,1.82,1.82,0,0,0,.29,1,2,2,0,0,0,.77.7,10.91,10.91,0,0,0,5.49,1.44c4.28,0,7.32-2.29,7.32-5.14,0-3.45-2.37-4.54-5.7-5.24" transform="translate(-5.82 -1.23)"/><path class="cls-3" d="M14.65,18.77A8.76,8.76,0,0,1,6.55,6.51,8.91,8.91,0,0,1,9.2,3.11a8.75,8.75,0,0,1,4-1.74A8.83,8.83,0,0,1,21.1,4a2.23,2.23,0,0,1,.41.66,2,2,0,0,1-.06,1.52,2,2,0,0,1-1.12,1,2.22,2.22,0,0,1-.77.13,2,2,0,0,1-.76-.18,2,2,0,0,1-.63-.46,4.93,4.93,0,0,0-1.6-1.14,4.82,4.82,0,0,0-5.32,1,4.77,4.77,0,0,0,0,6.77,4.82,4.82,0,0,0,5.32,1,4.75,4.75,0,0,0,1.6-1.13,2,2,0,0,1,1.39-.64,2.07,2.07,0,0,1,1.44.54,2,2,0,0,1,.63,1.38A2,2,0,0,1,21.1,16,8.88,8.88,0,0,1,18.17,18,8.72,8.72,0,0,1,14.65,18.77Z" transform="translate(-5.82 -1.23)"/><path class="cls-4" d="M117.11,16.93v-.65c0-3.43,2.68-5,5.2-6.2,2.21-1.09,4.18-1.91,4.18-3.72s-1.27-2.77-3.43-2.77A4,4,0,0,0,119,6.8c0,.07-1.77.1-1.77-1.3a3.74,3.74,0,0,1,1.53-2.73,7.08,7.08,0,0,1,4.52-1.45c3.66,0,5.88,1.88,5.88,5s-2.39,4.18-4.94,5.35c-2.21,1-4,1.91-4.47,3.69a3.22,3.22,0,0,0-.1.75h8.52c.88,0,1.27.36,1.27,1v.15c0,.69-.39,1.08-1.27,1.08h-9.36C117.6,18.38,117.11,18,117.11,16.93Zm14.17-6V9.18c0-4.83,2.67-7.86,7-7.86s7,3,7,7.83v1.68c0,4.84-2.68,7.89-7,7.89s-7-3-7-7.84Zm11.33.08V9.1c0-3.52-1.61-5.59-4.34-5.59S134,5.53,134,9.05v1.88c0,3.52,1.58,5.53,4.29,5.53s4.33-2,4.33-5.5Zm4.91,6v-.65c0-3.43,2.68-5,5.2-6.2,2.2-1.09,4.18-1.91,4.18-3.72s-1.27-2.77-3.43-2.77a4,4,0,0,0-4.11,3.21c0,.07-1.76.1-1.76-1.3a3.74,3.74,0,0,1,1.53-2.73,7.06,7.06,0,0,1,4.52-1.45c3.66,0,5.87,1.88,5.87,5s-2.39,4.18-4.93,5.35c-2.21,1-4,1.91-4.47,3.69a3.24,3.24,0,0,0-.11.75h8.52c.88,0,1.27.36,1.27,1v.15c0,.69-.39,1.08-1.27,1.08h-9.35c-1.17,0-1.67-.38-1.67-1.44Zm15.72.41v-.13c0-.75.42-1.08,1.22-1.08h2.81V4.22c-1,.8-1.43,1.26-1.92,1.65a2.12,2.12,0,0,1-1.38.57,1.45,1.45,0,0,1-1.38-1.63l5-3.28h.9a1.08,1.08,0,0,1,1.19,1.21l0,13.39h2.26c.8,0,1.22.33,1.22,1.09v.13c0,.72-.42,1-1.22,1h-7.49c-.8,0-1.21-.31-1.21-1Z" transform="translate(-5.82 -1.23)"/></g></svg>